# xmcd
#
# Track frame offsets: 
#        150
#        12930
#        26392
#        38365
#        53717
#        89195
#        104312
#        120235
#        133337
#        149902
#        159260
#        175215
#        201117
#        213442
#        228832
#        247075
#        262485
#        274572
#
# Disc length: 3710 seconds
#
# Revision: 29
# Processed by: cddbd v1.5.2PL0 Copyright (c) Steve Scherf et al.
# Submitted via: ExactAudioCopyFreeDBPlugin 1.0
#
DISCID=030e7c12
DTITLE=The Blues Brothers - The Blues Brothers Complete
DYEAR=2000
DGENRE=Rhythm and Blues
TTITLE0=Shake a Tail Feather (ft Ray Charles)
TTITLE1=The Old Landmark (ft James Brown and the Rev. James Cleveland 
TTITLE1=Choir ft Chaka Khan)
TTITLE2=Theme from Rawhide
TTITLE3=Minnie the Moocher (ft Cab Calloway)
TTITLE4=Sweet Home Chicago
TTITLE5=Jailhouse Rock
TTITLE6=Who's Making Love
TTITLE7=Do You Love Me
TTITLE8=Guilty
TTITLE9=Perry Mason Theme
TTITLE10=Riot in Cell Block Number Nine
TTITLE11=Green Onions
TTITLE12=I Ain't Got You
TTITLE13=From the Bottom
TTITLE14=Going Back to Miami
TTITLE15=Expressway to Your Heart
TTITLE16=Excusez Moi Mon Chérie
TTITLE17=Closing:  I Can't Turn You Loose
EXTD=YEAR: 2000
EXTT0=YEAR: 1998
EXTT1=YEAR: 1998
EXTT2=YEAR: 1998
EXTT3=YEAR: 1998
EXTT4=YEAR: 1998
EXTT5=YEAR: 1998
EXTT6=YEAR: 1998
EXTT7=YEAR: 1998
EXTT8=YEAR: 1998
EXTT9=YEAR: 1998
EXTT10=YEAR: 1998
EXTT11=YEAR: 1998
EXTT12=YEAR: 1998
EXTT13=YEAR: 1998
EXTT14=YEAR: 1998
EXTT15=YEAR: 1998
EXTT16=YEAR: 1998
EXTT17=YEAR: 1998
PLAYORDER=
